<svg xmlns="http://www.w3.org/2000/svg" xmlns:xlink="http://www.w3.org/1999/xlink" width="500" zoomAndPan="magnify" viewBox="0 0 375 374.999991" height="500" preserveAspectRatio="xMidYMid meet" version="1.0"><defs><clipPath id="7f17647448"><path d="M 0 7.265625 L 375 7.265625 L 375 315 L 0 315 Z M 0 7.265625 " clip-rule="nonzero"/></clipPath></defs><g clip-path="url(#7f17647448)"><path fill="#000000" d="M 54.039062 245.90625 L 83.222656 244.03125 C 83.269531 244.03125 83.269531 244.03125 83.316406 244.03125 L 304.566406 227.625 C 319.183594 226.515625 331.683594 216.894531 336.441406 203.039062 L 372.882812 96.898438 C 375.382812 89.632812 374.183594 81.597656 369.757812 75.390625 C 365.289062 69.136719 358.078125 65.429688 350.433594 65.429688 L 71.492188 65.429688 L 67.742188 37.234375 C 65.527344 20.441406 51.058594 7.789062 34.132812 7.789062 L 11.203125 7.789062 C 5.097656 7.789062 0.191406 12.746094 0.191406 18.808594 C 0.191406 24.917969 5.144531 29.824219 11.203125 29.824219 L 34.132812 29.824219 C 40.046875 29.824219 45.097656 34.25 45.867188 40.121094 L 70.046875 222.8125 L 52.644531 223.96875 C 36.347656 225.027344 23.605469 238.640625 23.605469 255 C 23.605469 272.128906 37.546875 286.082031 54.664062 286.082031 L 307.742188 286.082031 C 320.527344 286.082031 331.585938 294.308594 335.289062 306.578125 C 336.730469 311.34375 341.105469 314.421875 345.816406 314.421875 C 346.875 314.421875 347.933594 314.277344 348.992188 313.941406 C 354.808594 312.207031 358.125 306.050781 356.394531 300.226562 C 349.902344 278.578125 330.335938 264 307.742188 264 L 54.664062 264 C 49.664062 264 45.625 259.957031 45.625 254.953125 C 45.625 250.1875 49.328125 246.242188 54.039062 245.90625 Z M 350.433594 87.464844 C 351.007812 87.464844 351.492188 87.707031 351.828125 88.1875 C 352.164062 88.667969 352.257812 89.199219 352.066406 89.726562 L 315.625 195.867188 C 313.75 201.351562 308.75 205.203125 302.980469 205.636719 L 92.117188 221.273438 L 74.421875 87.464844 Z M 350.433594 87.464844 " fill-opacity="1" fill-rule="nonzero"/></g><path fill="#000000" d="M 117.789062 296.042969 C 98.222656 296.042969 82.308594 311.96875 82.308594 331.550781 C 82.308594 351.132812 98.222656 367.058594 117.789062 367.058594 C 137.355469 367.058594 153.269531 351.132812 153.269531 331.550781 C 153.269531 311.96875 137.355469 296.042969 117.789062 296.042969 Z M 117.789062 344.925781 C 110.382812 344.925781 104.375 338.914062 104.375 331.503906 C 104.375 324.09375 110.382812 318.078125 117.789062 318.078125 C 125.191406 318.078125 131.203125 324.09375 131.203125 331.503906 C 131.203125 338.914062 125.191406 344.925781 117.789062 344.925781 Z M 117.789062 344.925781 " fill-opacity="1" fill-rule="nonzero"/><path fill="#000000" d="M 285.289062 296.042969 C 265.722656 296.042969 249.808594 311.96875 249.808594 331.550781 C 249.808594 351.132812 265.722656 367.058594 285.289062 367.058594 C 304.855469 367.058594 320.769531 351.132812 320.769531 331.550781 C 320.769531 311.96875 304.855469 296.042969 285.289062 296.042969 Z M 285.289062 344.925781 C 277.882812 344.925781 271.875 338.914062 271.875 331.503906 C 271.875 324.09375 277.882812 318.078125 285.289062 318.078125 C 292.691406 318.078125 298.703125 324.09375 298.703125 331.503906 C 298.703125 338.914062 292.691406 344.925781 285.289062 344.925781 Z M 285.289062 344.925781 " fill-opacity="1" fill-rule="nonzero"/><path fill="#000000" d="M 145.335938 193.171875 C 151.441406 193.171875 156.347656 188.21875 156.347656 182.15625 L 156.347656 121.144531 C 156.347656 115.035156 151.394531 110.128906 145.335938 110.128906 C 139.277344 110.128906 134.328125 115.085938 134.328125 121.144531 L 134.328125 182.109375 C 134.328125 188.21875 139.230469 193.171875 145.335938 193.171875 Z M 145.335938 193.171875 " fill-opacity="1" fill-rule="nonzero"/><path fill="#000000" d="M 205.527344 193.171875 C 211.632812 193.171875 216.539062 188.21875 216.539062 182.15625 L 216.539062 121.144531 C 216.539062 115.035156 211.585938 110.128906 205.527344 110.128906 C 199.472656 110.128906 194.519531 115.085938 194.519531 121.144531 L 194.519531 182.109375 C 194.519531 188.21875 199.472656 193.171875 205.527344 193.171875 Z M 205.527344 193.171875 " fill-opacity="1" fill-rule="nonzero"/><path fill="#000000" d="M 265.769531 193.171875 C 271.875 193.171875 276.777344 188.21875 276.777344 182.15625 L 276.777344 121.144531 C 276.777344 115.035156 271.828125 110.128906 265.769531 110.128906 C 259.664062 110.128906 254.757812 115.085938 254.757812 121.144531 L 254.757812 182.109375 C 254.757812 188.21875 259.664062 193.171875 265.769531 193.171875 Z M 265.769531 193.171875 " fill-opacity="1" fill-rule="nonzero"/></svg>